<svg xmlns="http://www.w3.org/2000/svg" id="processonSvg1000" viewBox="248.59999084472656 363.5999984741211 419.0 426.0"
     width="419.0" height="426.0">
    <g id="ProcessOnG1004">
        <g id="ProcessOnG1005" transform="matrix(1.0,0.0,0.0,1.0,377.59999084472656,383.5999984741211)"
           opacity="1.0">
            <path id="ProcessOnPath1006" d="M0.0 0.0L270.0 0.0L270.0 334.80001068115234L0.0 334.80001068115234Z"
                  stroke="#323232" stroke-width="2.0" stroke-dasharray="none" opacity="1.0" fill="#ffffff"/>
        </g>
        <g id="ProcessOnG1007" transform="matrix(1.0,0.0,0.0,1.0,439.59999084472656,466.5999984741211)"
           opacity="1.0">
            <path id="ProcessOnPath1008" d="M0.0 0.0L177.0 0.0L177.0 180.0L0.0 180.0Z" stroke="#323232"
                  stroke-width="2.0" stroke-dasharray="none" opacity="1.0" fill="#33001a"/>
            <g id="ProcessOnG1009" transform="matrix(1.0,0.0,0.0,1.0,10.0,163.75)">
                <text id="ProcessOnText1010" fill="#ffffff" font-size="13" x="77.5" y="13.325" font-family="微软雅黑"
                      font-weight="normal" font-style="normal" text-decoration="none" family="微软雅黑"
                      text-anchor="middle" size="13">border margin scrollbar
                </text>
            </g>
        </g>
        <g id="ProcessOnG1011" transform="matrix(1.0,0.0,0.0,1.0,454.09999084472656,486.5999984741211)"
           opacity="1.0">
            <path id="ProcessOnPath1012" d="M0.0 0.0L148.0 0.0L148.0 146.0L0.0 146.0Z" stroke="#323232"
                  stroke-width="2.0" stroke-dasharray="none" opacity="1.0" fill="#ffffff"/>
        </g>
        <g id="ProcessOnG1013" transform="matrix(1.0,0.0,0.0,1.0,268.59999084472656,386.5999984741211)"
           opacity="1.0">
            <path id="ProcessOnPath1014"
                  d="M102.0 0.0Q93.0 0.0 93.0 9.0L93.0 156.90000534057617Q93.0 165.90000534057617 80.0 165.90000534057617Q93.0 165.90000534057617 93.0 174.90000534057617L93.0 322.80001068115234Q93.0 331.80001068115234 102.0 331.80001068115234"
                  stroke="#009900" stroke-width="2.0" stroke-dasharray="none" opacity="1.0" fill="none"/>
            <path id="ProcessOnPath1015" d="M0.0 0.0L102.0 0.0L102.0 331.80001068115234L0.0 331.80001068115234Z"
                  stroke="none" stroke-width="0.0" stroke-dasharray="none" opacity="1.0" fill="none"/>
            <g id="ProcessOnG1016" transform="matrix(1.0,0.0,0.0,1.0,0.0,157.77500534057617)">
                <text id="ProcessOnText1017" fill="#009900" font-size="13" x="73.0" y="13.325" font-family="微软雅黑"
                      font-weight="normal" font-style="normal" text-decoration="none" family="微软雅黑"
                      text-anchor="end" size="13">scrollHeight
                </text>
            </g>
        </g>
        <g id="ProcessOnG1018"
           transform="matrix(-1.8369701987210297E-16,-1.0,1.0,-1.8369701987210297E-16,378.09999084472656,767.0999984741211)"
           opacity="1.0">
            <path id="ProcessOnPath1019"
                  d="M42.0 0.0Q37.8 0.0 37.8 9.0L37.8 125.49999999999997Q37.8 134.49999999999997 20.0 134.49999999999997Q37.8 134.49999999999997 37.8 143.49999999999997L37.8 259.99999999999994Q37.8 268.99999999999994 42.0 268.99999999999994"
                  stroke="#009900" stroke-width="2.0" stroke-dasharray="none" opacity="1.0" fill="none"/>
            <path id="ProcessOnPath1020" d="M0.0 0.0L42.0 0.0L42.0 268.99999999999994L0.0 268.99999999999994Z"
                  stroke="none" stroke-width="0.0" stroke-dasharray="none" opacity="1.0" fill="none"/>
        </g>
        <g id="ProcessOnG1021" transform="matrix(1.0,0.0,0.0,1.0,456.59999084472656,743.3999938964844)"
           opacity="1.0">
            <path id="ProcessOnPath1022" d="M0.0 0.0L112.0 0.0L112.0 26.0L0.0 26.0Z" stroke="none"
                  stroke-width="0.0" stroke-dasharray="none" opacity="1.0" fill="none"/>
            <g id="ProcessOnG1023" transform="matrix(1.0,0.0,0.0,1.0,0.0,4.875)">
                <text id="ProcessOnText1024" fill="#009900" font-size="13" x="55.0" y="13.325" font-family="微软雅黑"
                      font-weight="normal" font-style="normal" text-decoration="none" family="微软雅黑"
                      text-anchor="middle" size="13">scrollWidth
                </text>
            </g>
        </g>
        <g id="ProcessOnG1025" transform="matrix(1.0,0.0,0.0,1.0,454.09999084472656,489.5999984741211)"
           opacity="1.0">
            <path id="ProcessOnPath1026"
                  d="M0.0 140.0Q9.0 140.0 9.0 131.0L9.0 79.0Q9.0 70.0 22.0 70.0Q9.0 70.0 9.0 61.0L9.0 9.0Q9.0 0.0 0.0 0.0"
                  stroke="#00cccc" stroke-width="2.0" stroke-dasharray="none" opacity="1.0" fill="none"/>
            <path id="ProcessOnPath1027" d="M0.0 0.0L100.0 0.0L100.0 140.0L0.0 140.0Z" stroke="none"
                  stroke-width="0.0" stroke-dasharray="none" opacity="1.0" fill="none"/>
            <g id="ProcessOnG1028" transform="matrix(1.0,0.0,0.0,1.0,27.0,61.875)">
                <text id="ProcessOnText1029" fill="#00cccc" font-size="13" x="0.0" y="13.325" font-family="微软雅黑"
                      font-weight="normal" font-style="normal" text-decoration="none" family="微软雅黑"
                      text-anchor="start" size="13">viewHeight
                </text>
            </g>
        </g>
        <g id="ProcessOnG1030"
           transform="matrix(6.123233995736766E-17,1.0,-1.0,6.123233995736766E-17,598.0999908447266,486.5999984741211)"
           opacity="1.0">
            <path id="ProcessOnPath1031"
                  d="M0.0 140.0Q9.0 140.0 9.0 131.0L9.0 79.0Q9.0 70.0 22.0 70.0Q9.0 70.0 9.0 61.0L9.0 9.0Q9.0 0.0 0.0 0.0"
                  stroke="#00cccc" stroke-width="2.0" stroke-dasharray="none" opacity="1.0" fill="none"/>
            <path id="ProcessOnPath1032" d="M0.0 0.0L100.0 0.0L100.0 140.0L0.0 140.0Z" stroke="none"
                  stroke-width="0.0" stroke-dasharray="none" opacity="1.0" fill="none"/>
        </g>
        <g id="ProcessOnG1033" transform="matrix(1.0,0.0,0.0,1.0,467.09999084472656,506.5999984741211)"
           opacity="1.0">
            <path id="ProcessOnPath1034" d="M0.0 0.0L122.0 0.0L122.0 26.0L0.0 26.0Z" stroke="none"
                  stroke-width="0.0" stroke-dasharray="none" opacity="1.0" fill="none"/>
            <g id="ProcessOnG1035" transform="matrix(1.0,0.0,0.0,1.0,0.0,4.875)">
                <text id="ProcessOnText1036" fill="#00cccc" font-size="13" x="60.0" y="13.325" font-family="微软雅黑"
                      font-weight="normal" font-style="normal" text-decoration="none" family="微软雅黑"
                      text-anchor="middle" size="13">viewWidth
                </text>
            </g>
        </g>
        <g id="ProcessOnG1037" transform="matrix(1.0,0.0,0.0,1.0,312.59999084472656,386.5999984741211)"
           opacity="1.0">
            <path id="ProcessOnPath1038"
                  d="M125.5 0.0Q116.5 0.0 116.5 9.0L116.5 42.5Q116.5 51.5 103.5 51.5Q116.5 51.5 116.5 60.5L116.5 94.0Q116.5 103.0 125.5 103.0"
                  stroke="#cc0066" stroke-width="2.0" stroke-dasharray="none" opacity="1.0" fill="none"/>
            <path id="ProcessOnPath1039" d="M0.0 0.0L125.5 0.0L125.5 103.0L0.0 103.0Z" stroke="none"
                  stroke-width="0.0" stroke-dasharray="none" opacity="1.0" fill="none"/>
            <g id="ProcessOnG1040" transform="matrix(1.0,0.0,0.0,1.0,0.0,43.375)">
                <text id="ProcessOnText1041" fill="#cc0066" font-size="13" x="96.5" y="13.325" font-family="微软雅黑"
                      font-weight="normal" font-style="normal" text-decoration="none" family="微软雅黑"
                      text-anchor="end" size="13">top
                </text>
            </g>
        </g>
        <g id="ProcessOnG1042"
           transform="matrix(-1.8369701987210297E-16,-1.0,1.0,-1.8369701987210297E-16,381.59999084472656,700.5999984741211)"
           opacity="1.0">
            <path id="ProcessOnPath1043"
                  d="M51.0 0.0Q45.9 0.0 45.9 7.5L45.9 30.0Q45.9 37.5 29.0 37.5Q45.9 37.5 45.9 45.0L45.9 67.5Q45.9 75.0 51.0 75.0"
                  stroke="#cc0066" stroke-width="2.0" stroke-dasharray="none" opacity="1.0" fill="none"/>
            <path id="ProcessOnPath1044" d="M0.0 0.0L51.0 0.0L51.0 75.0L0.0 75.0Z" stroke="none" stroke-width="0.0"
                  stroke-dasharray="none" opacity="1.0" fill="none"/>
        </g>
        <g id="ProcessOnG1045" transform="matrix(1.0,0.0,0.0,1.0,383.09999084472656,666.5999984741211)"
           opacity="1.0">
            <path id="ProcessOnPath1046" d="M0.0 0.0L72.0 0.0L72.0 29.0L0.0 29.0Z" stroke="none" stroke-width="0.0"
                  stroke-dasharray="none" opacity="1.0" fill="none"/>
            <g id="ProcessOnG1047" transform="matrix(1.0,0.0,0.0,1.0,0.0,6.375)">
                <text id="ProcessOnText1048" fill="#cc0066" font-size="13" x="35.0" y="13.325" font-family="微软雅黑"
                      font-weight="normal" font-style="normal" text-decoration="none" family="微软雅黑"
                      text-anchor="middle" size="13">left
                </text>
            </g>
        </g>
    </g>
</svg>
